<?xml version="1.0" encoding="UTF-8" standalone="no"?>
<!-- Generator: Adobe Illustrator 18.0.0, SVG Export Plug-In . SVG Version: 6.00 Build 0)  -->

<svg
   xmlns:dc="http://purl.org/dc/elements/1.1/"
   xmlns:cc="http://creativecommons.org/ns#"
   xmlns:rdf="http://www.w3.org/1999/02/22-rdf-syntax-ns#"
   xmlns:svg="http://www.w3.org/2000/svg"
   xmlns="http://www.w3.org/2000/svg"
   xmlns:sodipodi="http://sodipodi.sourceforge.net/DTD/sodipodi-0.dtd"
   xmlns:inkscape="http://www.inkscape.org/namespaces/inkscape"
   version="1.1"
   id="Layer_1"
   x="0px"
   y="0px"
   width="44px"
   height="44px"
   viewBox="0 0 44 44"
   enable-background="new 0 0 44 44"
   xml:space="preserve"
   inkscape:version="0.48.5 r10040"
   sodipodi:docname="add.svg"><metadata
     id="metadata3051"><rdf:RDF><cc:Work
         rdf:about=""><dc:format>image/svg+xml</dc:format><dc:type
           rdf:resource="http://purl.org/dc/dcmitype/StillImage" /><dc:title></dc:title></cc:Work></rdf:RDF></metadata><defs
     id="defs3049" /><sodipodi:namedview
     pagecolor="#ffffff"
     bordercolor="#666666"
     borderopacity="1"
     objecttolerance="10"
     gridtolerance="10"
     guidetolerance="10"
     inkscape:pageopacity="0"
     inkscape:pageshadow="2"
     inkscape:window-width="1564"
     inkscape:window-height="853"
     id="namedview3047"
     showgrid="false"
     inkscape:zoom="5.6568543"
     inkscape:cx="34.104827"
     inkscape:cy="29.316447"
     inkscape:window-x="233"
     inkscape:window-y="0"
     inkscape:window-maximized="0"
     inkscape:current-layer="Layer_1" /><g
     id="g3039"
     style="fill:#cccccc"><g
       id="g3041"
       style="fill:#cccccc" /><path
       d="M22,1.801c11.138,0,20.199,9.061,20.199,20.199S33.138,42.199,22,42.199S1.801,33.138,1.801,22   S10.862,1.801,22,1.801 M22,0.361C10.049,0.361,0.361,10.049,0.361,22c0,11.951,9.688,21.639,21.639,21.639   S43.639,33.951,43.639,22C43.639,10.049,33.951,0.361,22,0.361L22,0.361z"
       id="path3045"
       style="fill:#cccccc"
       fill="#888888" /></g><path
     style="fill:none;stroke:#b3b3b3;stroke-width:1px;stroke-linecap:butt;stroke-linejoin:miter;stroke-opacity:1"
     d="m 20.23042,21.144173 0,10.186957 5.075031,0.04419 0,-6.372844 5.23609,0 0.04419,6.372844 4.986643,0 -0.04419,-10.231151"
     id="path4141"
     inkscape:connector-curvature="0"
     sodipodi:nodetypes="cccccccc" /><path
     id="path4143"
     style="fill:none;stroke:#b3b3b3;stroke-width:1.21368372px;stroke-linecap:butt;stroke-linejoin:miter;stroke-opacity:1"
     d="M 17.34785,21.938228 27.983551,11.597509 38.559411,22.027526"
     inkscape:connector-curvature="0"
     sodipodi:nodetypes="ccc" /><path
     style="fill:none;stroke:#b3b3b3;stroke-width:1.16342318px;stroke-linecap:butt;stroke-linejoin:miter;stroke-opacity:1"
     d="m 10.994164,19.073724 0,10.960155"
     id="path4148"
     inkscape:connector-curvature="0" /><path
     inkscape:connector-curvature="0"
     id="path4154"
     d="m 16.474241,24.553801 -10.9601541,0"
     style="fill:none;stroke:#b3b3b3;stroke-width:1.14427233px;stroke-linecap:butt;stroke-linejoin:miter;stroke-opacity:1" /></svg>