<?xml version="1.0" encoding="UTF-8" standalone="no"?>
<!-- Generator: Adobe Illustrator 18.0.0, SVG Export Plug-In . SVG Version: 6.00 Build 0)  -->

<svg
   xmlns:dc="http://purl.org/dc/elements/1.1/"
   xmlns:cc="http://creativecommons.org/ns#"
   xmlns:rdf="http://www.w3.org/1999/02/22-rdf-syntax-ns#"
   xmlns:svg="http://www.w3.org/2000/svg"
   xmlns="http://www.w3.org/2000/svg"
   xmlns:sodipodi="http://sodipodi.sourceforge.net/DTD/sodipodi-0.dtd"
   xmlns:inkscape="http://www.inkscape.org/namespaces/inkscape"
   version="1.1"
   id="Layer_1"
   x="0px"
   y="0px"
   width="44px"
   height="44px"
   viewBox="0 0 44 44"
   enable-background="new 0 0 44 44"
   xml:space="preserve"
   inkscape:version="0.48.5 r10040"
   sodipodi:docname="lock.svg"><metadata
     id="metadata3051"><rdf:RDF><cc:Work
         rdf:about=""><dc:format>image/svg+xml</dc:format><dc:type
           rdf:resource="http://purl.org/dc/dcmitype/StillImage" /><dc:title></dc:title></cc:Work></rdf:RDF></metadata><defs
     id="defs3049" /><sodipodi:namedview
     pagecolor="#ffffff"
     bordercolor="#666666"
     borderopacity="1"
     objecttolerance="10"
     gridtolerance="10"
     guidetolerance="10"
     inkscape:pageopacity="0"
     inkscape:pageshadow="2"
     inkscape:window-width="1564"
     inkscape:window-height="853"
     id="namedview3047"
     showgrid="false"
     inkscape:zoom="15.113636"
     inkscape:cx="19.462972"
     inkscape:cy="28.663553"
     inkscape:window-x="65"
     inkscape:window-y="63"
     inkscape:window-maximized="0"
     inkscape:current-layer="Layer_1" /><g
     id="g3039"
     style="fill:#cccccc"><g
       id="g3041"
       style="fill:#cccccc" /><path
       d="M22,1.801c11.138,0,20.199,9.061,20.199,20.199S33.138,42.199,22,42.199S1.801,33.138,1.801,22   S10.862,1.801,22,1.801 M22,0.361C10.049,0.361,0.361,10.049,0.361,22c0,11.951,9.688,21.639,21.639,21.639   S43.639,33.951,43.639,22C43.639,10.049,33.951,0.361,22,0.361L22,0.361z"
       id="path3045"
       style="fill:#cccccc"
       fill="#888888" /></g><path
     style="fill:#cccccc;fill-opacity:1;stroke:#cccccc;stroke-width:0.77882974999999999;stroke-opacity:1"
     d="m 14.732646,21.756584 0,12.071861 14.335335,0 0,-12.071861 z m 0.645792,0.574668 13.137323,0 0.04679,10.946864 -13.230895,0.04679 z"
     id="rect4079"
     inkscape:connector-curvature="0"
     sodipodi:nodetypes="cccccccccc" /><path
     style="font-size:medium;font-style:normal;font-variant:normal;font-weight:normal;font-stretch:normal;text-indent:0;text-align:start;text-decoration:none;line-height:normal;letter-spacing:normal;word-spacing:normal;text-transform:none;direction:ltr;block-progression:tb;writing-mode:lr-tb;text-anchor:start;baseline-shift:baseline;color:#000000;fill:#cccccc;fill-opacity:1;stroke:none;stroke-width:1px;marker:none;visibility:visible;display:inline;overflow:visible;enable-background:accumulate;font-family:Sans;-inkscape-font-specification:Sans"
     d="m 28.266682,14.15625 c -0.786441,0.761314 -1.574963,1.521989 -2.374846,2.268627 -0.171207,0.08394 -0.06438,0.301518 -0.0939,0.453557 0,1.696772 0,3.393544 0,5.090316 0.333333,0 0.900597,-0.04679 1.23393,-0.04679 0,-1.677083 -0.09357,-3.167023 -0.09357,-4.844106 0.625,-0.59375 1.25,-1.1875 1.875,-1.78125 1.625,0 2.969284,0.04679 4.594284,0.04679 0.604167,0.645833 1.114761,1.151309 1.718928,1.797142 0,1.71875 0,2.419904 0,4.138654 0.333333,0 0.900597,0 1.23393,0 0,-1.864583 0,-2.758357 0,-4.62294 -0.397343,-0.33302 -0.721134,-0.745859 -1.087803,-1.112168 -0.440556,-0.461567 -0.870408,-0.933533 -1.318447,-1.387832 -1.895833,0 -3.791667,0 -5.687506,0 z"
     id="path4090"
     inkscape:connector-curvature="0"
     sodipodi:nodetypes="ccccccccccccccc" /><path
     style="fill:#cccccc;stroke:#cccccc;stroke-width:1px;stroke-linecap:butt;stroke-linejoin:miter;stroke-opacity:1"
     d="m 21.900314,24.537019 0,4.491457"
     id="path4092"
     inkscape:connector-curvature="0" /><path
     style="fill:#cccccc;stroke:#cccccc;stroke-width:0.94436370999999997px;stroke-linecap:butt;stroke-linejoin:miter;stroke-opacity:1"
     d="m 20.544257,25.753455 2.712114,0"
     id="path4094"
     inkscape:connector-curvature="0" /></svg>