<?xml version="1.0" encoding="UTF-8" standalone="no"?>
<!-- Generator: Adobe Illustrator 18.0.0, SVG Export Plug-In . SVG Version: 6.00 Build 0)  -->

<svg
   xmlns:dc="http://purl.org/dc/elements/1.1/"
   xmlns:cc="http://creativecommons.org/ns#"
   xmlns:rdf="http://www.w3.org/1999/02/22-rdf-syntax-ns#"
   xmlns:svg="http://www.w3.org/2000/svg"
   xmlns="http://www.w3.org/2000/svg"
   xmlns:sodipodi="http://sodipodi.sourceforge.net/DTD/sodipodi-0.dtd"
   xmlns:inkscape="http://www.inkscape.org/namespaces/inkscape"
   version="1.1"
   id="Layer_1"
   x="0px"
   y="0px"
   width="44px"
   height="44px"
   viewBox="0 0 44 44"
   enable-background="new 0 0 44 44"
   xml:space="preserve"
   inkscape:version="0.48.5 r10040"
   sodipodi:docname="search_a.svg"><metadata
     id="metadata3051"><rdf:RDF><cc:Work
         rdf:about=""><dc:format>image/svg+xml</dc:format><dc:type
           rdf:resource="http://purl.org/dc/dcmitype/StillImage" /><dc:title></dc:title></cc:Work></rdf:RDF></metadata><defs
     id="defs3049" /><sodipodi:namedview
     pagecolor="#ffffff"
     bordercolor="#666666"
     borderopacity="1"
     objecttolerance="10"
     gridtolerance="10"
     guidetolerance="10"
     inkscape:pageopacity="0"
     inkscape:pageshadow="2"
     inkscape:window-width="1564"
     inkscape:window-height="853"
     id="namedview3047"
     showgrid="false"
     inkscape:zoom="7.5568182"
     inkscape:cx="-12.16719"
     inkscape:cy="22.155641"
     inkscape:window-x="164"
     inkscape:window-y="43"
     inkscape:window-maximized="0"
     inkscape:current-layer="Layer_1" /><g
     id="g3039"
     style="fill:#cccccc"><g
       id="g3041"
       style="fill:#cccccc" /><path
       d="M22,1.801c11.138,0,20.199,9.061,20.199,20.199S33.138,42.199,22,42.199S1.801,33.138,1.801,22   S10.862,1.801,22,1.801 M22,0.361C10.049,0.361,0.361,10.049,0.361,22c0,11.951,9.688,21.639,21.639,21.639   S43.639,33.951,43.639,22C43.639,10.049,33.951,0.361,22,0.361L22,0.361z"
       id="path3045"
       style="fill:#cccccc"
       fill="#888888" /></g><path
     sodipodi:type="arc"
     style="fill:none;stroke:#cccccc;stroke-opacity:1"
     id="path3302"
     sodipodi:cx="16.839098"
     sodipodi:cy="20.081203"
     sodipodi:rx="6.9142857"
     sodipodi:ry="6.9142857"
     d="m 23.753384,20.081203 a 6.9142857,6.9142857 0 1 1 -13.8285717,0 6.9142857,6.9142857 0 1 1 13.8285717,0 z"
     transform="translate(1.6541353,-1.5879699)" /><path
     style="font-size:medium;font-style:normal;font-variant:normal;font-weight:normal;font-stretch:normal;text-indent:0;text-align:start;text-decoration:none;line-height:normal;letter-spacing:normal;word-spacing:normal;text-transform:none;direction:ltr;block-progression:tb;writing-mode:lr-tb;text-anchor:start;baseline-shift:baseline;color:#000000;fill:#b3b3b3;fill-opacity:1;fill-rule:nonzero;stroke:none;stroke-width:1.05651712000000009px;marker:none;visibility:visible;display:inline;overflow:visible;enable-background:accumulate;font-family:Sans;-inkscape-font-specification:Sans"
     d="m 23.977914,22.933835 -0.950329,0.915413 7.753665,7.558835 c 0.551082,0.01287 0.94822,-0.156191 0.817998,-0.948497 z"
     id="path3308"
     inkscape:connector-curvature="0"
     sodipodi:nodetypes="ccccc" /><path
     style="fill:#b3b3b3;fill-opacity:1;stroke:none"
     d="M 18.46875 11.09375 C 14.386732 11.09375 11.09375 14.386732 11.09375 18.46875 C 11.09375 22.550768 14.386732 25.875 18.46875 25.875 C 22.550768 25.875 25.875 22.550768 25.875 18.46875 C 25.875 14.386732 22.550768 11.09375 18.46875 11.09375 z M 18.46875 12.4375 C 21.812357 12.4375 24.53125 15.125143 24.53125 18.46875 C 24.53125 21.812357 21.812357 24.53125 18.46875 24.53125 C 15.125143 24.53125 12.4375 21.812357 12.4375 18.46875 C 12.4375 15.125143 15.125143 12.4375 18.46875 12.4375 z "
     id="path3344" /></svg>