<?xml version="1.0" encoding="UTF-8" standalone="no"?>
<!-- Generator: Adobe Illustrator 18.0.0, SVG Export Plug-In . SVG Version: 6.00 Build 0)  -->

<svg
   xmlns:dc="http://purl.org/dc/elements/1.1/"
   xmlns:cc="http://creativecommons.org/ns#"
   xmlns:rdf="http://www.w3.org/1999/02/22-rdf-syntax-ns#"
   xmlns:svg="http://www.w3.org/2000/svg"
   xmlns="http://www.w3.org/2000/svg"
   xmlns:sodipodi="http://sodipodi.sourceforge.net/DTD/sodipodi-0.dtd"
   xmlns:inkscape="http://www.inkscape.org/namespaces/inkscape"
   version="1.1"
   id="Layer_1"
   x="0px"
   y="0px"
   width="44px"
   height="44px"
   viewBox="0 0 44 44"
   enable-background="new 0 0 44 44"
   xml:space="preserve"
   inkscape:version="0.48.5 r10040"
   sodipodi:docname="star.svg"><metadata
     id="metadata3051"><rdf:RDF><cc:Work
         rdf:about=""><dc:format>image/svg+xml</dc:format><dc:type
           rdf:resource="http://purl.org/dc/dcmitype/StillImage" /><dc:title></dc:title></cc:Work></rdf:RDF></metadata><defs
     id="defs3049" /><sodipodi:namedview
     pagecolor="#ffffff"
     bordercolor="#666666"
     borderopacity="1"
     objecttolerance="10"
     gridtolerance="10"
     guidetolerance="10"
     inkscape:pageopacity="0"
     inkscape:pageshadow="2"
     inkscape:window-width="1564"
     inkscape:window-height="853"
     id="namedview3047"
     showgrid="false"
     inkscape:zoom="7.5568182"
     inkscape:cx="2.039039"
     inkscape:cy="13.272341"
     inkscape:window-x="175"
     inkscape:window-y="165"
     inkscape:window-maximized="0"
     inkscape:current-layer="Layer_1" /><g
     id="g3039"
     style="fill:#cccccc"><g
       id="g3041"
       style="fill:#cccccc" /><path
       d="M22,1.801c11.138,0,20.199,9.061,20.199,20.199S33.138,42.199,22,42.199S1.801,33.138,1.801,22   S10.862,1.801,22,1.801 M22,0.361C10.049,0.361,0.361,10.049,0.361,22c0,11.951,9.688,21.639,21.639,21.639   S43.639,33.951,43.639,22C43.639,10.049,33.951,0.361,22,0.361L22,0.361z"
       id="path3045"
       style="fill:#cccccc"
       fill="#888888" /></g><path
     sodipodi:type="star"
     style="fill:#b3b3b3;fill-opacity:1;stroke:none"
     id="path3379"
     sodipodi:sides="5"
     sodipodi:cx="8.0721807"
     sodipodi:cy="19.518797"
     sodipodi:r1="17.517723"
     sodipodi:r2="6.831912"
     sodipodi:arg1="0.47040426"
     sodipodi:arg2="1.0987228"
     inkscape:flatsided="false"
     inkscape:rounded="0"
     inkscape:randomized="0"
     d="M 23.687219,27.458647 11.178883,25.603484 5.346247,36.823129 3.2453231,24.353719 -9.2275768,22.273613 1.982316,16.422255 0.10627629,3.9170346 9.135295,12.770107 20.448739,7.1215619 14.819086,18.444419 z"
     inkscape:transform-center-x="-0.31709957"
     inkscape:transform-center-y="-1.6752643"
     transform="matrix(0.64740678,0.33528793,-0.33528793,0.64740678,23.295595,7.8547498)" /></svg>